<?xml version="1.0" encoding="UTF-8"?>
<!DOCTYPE svg PUBLIC "-//W3C//DTD SVG 1.1//EN" "http://www.w3.org/Graphics/SVG/1.1/DTD/svg11.dtd">
<!-- Creator: CorelDRAW 2021 (64-Bit) -->
<svg xmlns="http://www.w3.org/2000/svg" xml:space="preserve" width="210mm" height="297mm" version="1.1" style="shape-rendering:geometricPrecision; text-rendering:geometricPrecision; image-rendering:optimizeQuality; fill-rule:evenodd; clip-rule:evenodd"
viewBox="0 0 21000 29700"
 xmlns:xlink="http://www.w3.org/1999/xlink"
 xmlns:xodm="http://www.corel.com/coreldraw/odm/2003">
 <defs>
  <style type="text/css">
   <![CDATA[
    .fil1 {fill:black}
    .fil0 {fill:#211915}
    .fil2 {fill:#EDDA8E}
   ]]>
  </style>
 </defs>
 <g id="Layer_x0020_1">
  <metadata id="CorelCorpID_0Corel-Layer"/>
  <g id="_1956210041328">
   <path class="fil0" d="M1601.52 24658.17l3761.42 0c118.26,0 66.25,5.43 132.73,-32.43l-0.03 -97.27c-181.06,-104.77 -1494.55,-32.93 -1818.86,-32.93 -631.5,0 -1262.99,-0.31 -1894.47,0.05l-0.72 -18685.81 18685.83 6.22 -4.85 16091.44c16.84,175.54 -32.48,126.58 140.61,131.13 39.55,-70.2 32.4,-17.63 32.4,-136.61l0.01 -16277.89 -19034.07 0 0 19034.1z"/>
   <path class="fil1" d="M10712.92 16908.34l510.15 -6.94 0.09 -1947.82 665.31 876.89c332.26,464.93 218.01,397.22 1065.58,-733.93l74.07 -91.44c5.04,-5.43 12.83,-12.98 17.55,-17.85l39.2 1916.64 508.4 -0.15 -0.07 -2713.24c-699.69,-40.42 -548.2,-60.14 -988.42,556.49 -78.86,110.47 -141.48,188.46 -219.27,299.3 -59.78,85.19 -168.67,211.81 -213.53,301.18 -255.74,-201.9 -767.1,-1162.93 -939.93,-1162.93l-519.83 0 0.7 2723.8z"/>
   <path class="fil1" d="M14805.73 15908.01c37.42,-136.85 442.02,-1068.75 507.8,-1138.42l486.33 1145.2 -994.13 -6.78zm-999.99 997.36l506.78 2.97c196.17,-52.34 111.62,-518.82 389.12,-518.82l1323.16 4.93c200.08,547.23 161.52,561.75 769.79,502.74l-1213 -2710.05 -563.79 -2.6 -1212.06 2720.83z"/>
   <polygon class="fil1" points="4973.51,16908.34 5483.66,16901.4 5483.49,15805.85 6830.22,15805.85 6828.76,16901.69 7331.95,16901.4 7331.78,14193.69 6828.68,14189.68 6828.76,15335.41 5483.49,15335.41 5483.49,14193.69 4973.82,14184.54 "/>
   <path class="fil1" d="M7824.34 15676.15c0,777.97 404.05,1273.01 1171.27,1293.24 823.89,21.73 1212.73,-489.26 1212.73,-1293.24l0 -1491.61 -504.37 0 -0.05 1491.61c0,493.79 -173.21,835.57 -676.72,831.17 -494.99,-4.32 -698.1,-340.71 -698.1,-831.17l0 -1491.61 -503.82 0 -0.94 1491.61z"/>
   <path class="fil1" d="M11783.29 23879.95l421.54 0c324.1,0 582.81,58.4 582.4,389.12 -0.41,327.43 -259.09,389.1 -582.4,389.1l-421.54 0 0 -778.22zm0 -1005.21l291.84 0c317.94,0 561.24,48.19 580.68,359.19 19.49,311.82 -184.83,419.04 -483.41,419.04l-389.11 0 0 -778.23zm927.12 843.07c97.13,-145.83 180.38,-244.32 170.8,-485.17 -7.96,-199.85 -99.11,-366.39 -205.84,-439.12 -282.26,-192.35 -739.59,-145.77 -1119.06,-145.77l0 2237.4c414.75,0 1018.5,57.8 1283.21,-175.84 182.68,-161.24 243.45,-572.23 60.91,-811.66l-190.02 -179.84z"/>
   <path class="fil1" d="M17944.25 24398.76c-105.13,31.32 -88.14,46.17 -164.38,127.31 -60.1,63.96 -82.21,85.92 -165.01,127.54 -451.68,226.99 -1027.21,-116.19 -945.73,-676.77 77.75,-534.78 706.93,-704.75 1061.21,-401.82 206.85,176.87 43.17,175.22 388.03,175.22 -270.06,-836.72 -1673.87,-672.51 -1673.88,324.26 -0.01,997.09 1416.93,1162.74 1674.29,324.26l-174.53 0z"/>
   <path class="fil2" d="M11783.29 24658.17l421.54 0c323.31,0 581.99,-61.67 582.4,-389.1 0.41,-330.72 -258.3,-389.12 -582.4,-389.12l-421.54 0 0 778.22z"/>
   <path class="fil2" d="M11783.29 23652.97l389.11 0c298.58,0 502.9,-107.22 483.41,-419.04 -19.44,-311 -262.74,-359.19 -580.68,-359.19l-291.84 0 0 778.23z"/>
   <path class="fil2" d="M14805.73 15908.01l994.13 6.78 -486.33 -1145.2c-65.78,69.67 -470.38,1001.57 -507.8,1138.42z"/>
   <path class="fil1" d="M14316.12 24106.92l2.12 772.5 221.27 5.73c0,-922.15 -94.14,-1138.97 579.33,-1364.39l69.83 -222.01c-273.93,16.7 -540.12,133.61 -637.44,281.75l-11.72 -284.22 -226.99 0 3.6 810.64z"/>
  </g>
 </g>
</svg>
